<svg width="58" height="58" viewBox="0 0 58 58" fill="none" xmlns="http://www.w3.org/2000/svg">
<circle cx="25" cy="25" r="25" fill="#204EA5" fill-opacity="0.5"/>
<path d="M24.6667 8C26.8768 8 28.9964 8.87797 30.5592 10.4408C32.122 12.0036 33 14.1232 33 16.3333C33 18.5435 32.122 20.6631 30.5592 22.2259C28.9964 23.7887 26.8768 24.6667 24.6667 24.6667C22.4565 24.6667 20.3369 23.7887 18.7741 22.2259C17.2113 20.6631 16.3333 18.5435 16.3333 16.3333C16.3333 14.1232 17.2113 12.0036 18.7741 10.4408C20.3369 8.87797 22.4565 8 24.6667 8ZM24.6667 28.8333C33.875 28.8333 41.3333 32.5625 41.3333 37.1667V41.3333H8V37.1667C8 32.5625 15.4583 28.8333 24.6667 28.8333Z" fill="#204EA5"/>
</svg>
